HIERARCHY
ROOT hip
{
  OFFSET 0 0 0
  CHANNELS 6 Xposition Yposition Zposition Zrotation Yrotation Xrotation
  JOINT abdomen
  {
    OFFSET 0 20.6881 -0.73152
    CHANNELS 3 Zrotation Xrotation Yrotation
    JOINT chest
    {
      OFFSET 0 11.7043 -0.48768
      CHANNELS 3 Zrotation Xrotation Yrotation
      JOINT neck
      {
        OFFSET 0 22.1894 -2.19456
        CHANNELS 3 Zrotation Xrotation Yrotation
        JOINT head
        {
          OFFSET -0.24384 7.07133 1.2192
          CHANNELS 3 Zrotation Xrotation Yrotation
          JOINT leftEye
          {
            OFFSET 4.14528 8.04674 8.04672
            CHANNELS 3 Zrotation Xrotation Yrotation
            End Site
            {
              OFFSET 1 0 0
            }
          }
          JOINT rightEye
          {
            OFFSET -3.6576 8.04674 8.04672
            CHANNELS 3 Zrotation Xrotation Yrotation
            End Site
            {
              OFFSET 1 0 0
            }
          }
        }
      }
      JOINT rCollar
      {
        OFFSET -2.68224 19.2634 -4.8768
        CHANNELS 3 Zrotation Xrotation Yrotation
        JOINT rShldr
        {
          OFFSET -8.77824 -1.95073 1.46304
          CHANNELS 3 Zrotation Xrotation Yrotation
          JOINT rForeArm
          {
            OFFSET -28.1742 -1.7115 0.48768
            CHANNELS 3 Zrotation Xrotation Yrotation
            JOINT rHand
            {
              OFFSET -22.5879 0.773209 7.07136
              CHANNELS 3 Zrotation Xrotation Yrotation
              JOINT rThumb1
              {
                OFFSET -1.2192 -0.487915 3.41376
                CHANNELS 3 Zrotation Xrotation Yrotation
                JOINT rThumb2
                {
                  OFFSET -3.37035 -0.52449 3.41376
                  CHANNELS 3 Zrotation Xrotation Yrotation
                  End Site
                  {
                    OFFSET -1.78271 -1.18214 1.43049
                  }
                }
              }
              JOINT rIndex1
              {
                OFFSET -7.75947 0.938293 5.60832
                CHANNELS 3 Zrotation Xrotation Yrotation
                JOINT rIndex2
                {
                  OFFSET -2.54057 -0.884171 1.56538
                  CHANNELS 3 Zrotation Xrotation Yrotation
                  End Site
                  {
                    OFFSET -1.62519 -0.234802 1.16502
                  }
                }
              }
              JOINT rMid1
              {
                OFFSET -8.24714 1.18213 3.41376
                CHANNELS 3 Zrotation Xrotation Yrotation
                JOINT rMid2
                {
                  OFFSET -3.10165 -0.590103 1.0647
                  CHANNELS 3 Zrotation Xrotation Yrotation
                  End Site
                  {
                    OFFSET -2.48547 -0.328903 0.83742
                  }
                }
              }
              JOINT rRing1
              {
                OFFSET -8.82822 0.546677 1.51678
                CHANNELS 3 Zrotation Xrotation Yrotation
                JOINT rRing2
                {
                  OFFSET -2.60934 -0.819778 -0.0198488
                  CHANNELS 3 Zrotation Xrotation Yrotation
                  End Site
                  {
                    OFFSET -2.33842 -0.294052 0.168128
                  }
                }
              }
              JOINT rPinky1
              {
                OFFSET -8.27202 -0.0477905 -0.4584
                CHANNELS 3 Zrotation Xrotation Yrotation
                JOINT rPinky2
                {
                  OFFSET -1.82734 -0.647385 -0.700984
                  CHANNELS 3 Zrotation Xrotation Yrotation
                  End Site
                  {
                    OFFSET -1.69225 -0.51767 -0.607171
                  }
                }
              }
            }
          }
        }
      }
      JOINT lCollar
      {
        OFFSET 2.68224 19.2634 -4.8768
        CHANNELS 3 Zrotation Xrotation Yrotation
        JOINT lShldr
        {
          OFFSET 8.77824 -1.95073 1.46304
          CHANNELS 3 Zrotation Xrotation Yrotation
          JOINT lForeArm
          {
            OFFSET 28.1742 -1.7115 0.48768
            CHANNELS 3 Zrotation Xrotation Yrotation
            JOINT lHand
            {
              OFFSET 22.5879 0.773209 7.07136
              CHANNELS 3 Zrotation Xrotation Yrotation
              JOINT lThumb1
              {
                OFFSET 1.2192 -0.487915 3.41376
                CHANNELS 3 Zrotation Xrotation Yrotation
                JOINT lThumb2
                {
                  OFFSET 3.37035 -0.52449 3.41376
                  CHANNELS 3 Zrotation Xrotation Yrotation
                  End Site
                  {
                    OFFSET 1.78271 -1.18214 1.43049
                  }
                }
              }
              JOINT lIndex1
              {
                OFFSET 7.75947 0.938293 5.60832
                CHANNELS 3 Zrotation Xrotation Yrotation
                JOINT lIndex2
                {
                  OFFSET 2.54057 -0.884171 1.56538
                  CHANNELS 3 Zrotation Xrotation Yrotation
                  End Site
                  {
                    OFFSET 1.62519 -0.234802 1.16502
                  }
                }
              }
              JOINT lMid1
              {
                OFFSET 8.24714 1.18213 3.41376
                CHANNELS 3 Zrotation Xrotation Yrotation
                JOINT lMid2
                {
                  OFFSET 3.10165 -0.590103 1.0647
                  CHANNELS 3 Zrotation Xrotation Yrotation
                  End Site
                  {
                    OFFSET 2.48547 -0.328903 0.83742
                  }
                }
              }
              JOINT lRing1
              {
                OFFSET 8.82822 0.546677 1.51678
                CHANNELS 3 Zrotation Xrotation Yrotation
                JOINT lRing2
                {
                  OFFSET 2.60934 -0.819778 -0.0198488
                  CHANNELS 3 Zrotation Xrotation Yrotation
                  End Site
                  {
                    OFFSET 2.33842 -0.294052 0.168128
                  }
                }
              }
              JOINT lPinky1
              {
                OFFSET 8.27202 -0.0477905 -0.4584
                CHANNELS 3 Zrotation Xrotation Yrotation
                JOINT lPinky2
                {
                  OFFSET 1.82734 -0.647385 -0.700984
                  CHANNELS 3 Zrotation Xrotation Yrotation
                  End Site
                  {
                    OFFSET 1.69225 -0.51767 -0.607171
                  }
                }
              }
            }
          }
        }
      }
    }
  }
  JOINT rButtock
  {
    OFFSET -8.77824 4.35084 1.2192
    CHANNELS 3 Zrotation Xrotation Yrotation
    JOINT rThigh
    {
      OFFSET 0 -1.70687 -2.19456
      CHANNELS 3 Zrotation Xrotation Yrotation
      JOINT rShin
      {
        OFFSET 0 -36.8199 0.73152
        CHANNELS 3 Zrotation Xrotation Yrotation
        JOINT rFoot
        {
          OFFSET 0.73152 -45.1104 -5.12064
          CHANNELS 3 Zrotation Xrotation Yrotation
          End Site
          {
            OFFSET -1.1221 -3.69964 12.103
          }
        }
      }
    }
  }
  JOINT lButtock
  {
    OFFSET 8.77824 4.35084 1.2192
    CHANNELS 3 Zrotation Xrotation Yrotation
    JOINT lThigh
    {
      OFFSET 0 -1.70687 -2.19456
      CHANNELS 3 Zrotation Xrotation Yrotation
      JOINT lShin
      {
        OFFSET 0 -36.8199 0.73152
        CHANNELS 3 Zrotation Xrotation Yrotation
        JOINT lFoot
        {
          OFFSET -0.73152 -45.1104 -5.12064
          CHANNELS 3 Zrotation Xrotation Yrotation
          End Site
          {
            OFFSET 1.1221 -3.69964 12.103
          }
        }
      }
    }
  }
}
MOTION
Frames:	8
Frame Time:	0.00833333
3.44141 65.6544 227.136 0.0 0.0 0.0 1.57503 -0.00270805 0.0428959 0.434163 0.00151586 0.0751868 -3.36984e-16 7.95139e-16 -3.47873e-16 -9.50439e-16 9.54166e-15 -1.02343e-15 -0.0 0.0 0.0 -0.0 0.0 0.0 -1.00917e-16 -3.41661e-17 0.0 -2.40667e-15 -4.72114e-16 -3.37934e-15 -5.889e-14 -6.55989e-15 -7.95139e-14 -6.3121e-13 -1.45933e-13 -7.76055e-13 -1.50045e-12 -3.33017e-13 -1.83836e-12 -2.60726e-12 -5.82042e-13 -3.17499e-12 -1.49446e-12 -3.31175e-13 -1.85744e-12 7.73091 5.47488 0.417314 -1.50152e-12 -3.33461e-13 -1.83836e-12 2.90554 0.965183 0.102902 -1.49403e-12 -3.33362e-13 -1.83757e-12 10.2786 0.731801 0.0259123 -1.5048e-12 -3.31175e-13 -1.82564e-12 2.22167 -0.733487 -0.20892 -3.96054e-16 -3.51367e-17 -3.97569e-16 -3.96327e-15 -8.75895e-16 -4.57205e-15 -5.44173e-14 -4.69132e-14 -4.45278e-14 -6.47529e-13 -1.1855e-13 -7.82416e-13 -1.5196e-12 -3.57843e-13 -1.83836e-12 -2.61481e-12 -6.20208e-13 -3.17737e-12 -1.52309e-12 -3.5662e-13 -1.82246e-12 -7.73091 5.47488 -0.417314 -1.51827e-12 -3.57713e-13 -1.83836e-12 -2.90554 0.965183 -0.102902 -1.52114e-12 -3.58011e-13 -1.83995e-12 -10.2786 0.731801 -0.0259123 -1.51414e-12 -3.57415e-13 -1.85744e-12 -2.22167 -0.733487 0.20892 -2.03217e-16 0.0 -3.88251e-19 1.70464 -6.60402 -0.159323 0.00258829 6.39968 0.073375 -0.527808 0.199741 0.0640649 2.03217e-16 0.0 3.88251e-19 0.692038 -1.9236 0.00558137 0.00917735 -2.07857 0.0757444 0.502946 3.99746 -0.138953
4.00059 62.5382 221.989 -176.952 4.0743 -154.728 3.47542 4.10445 3.35612 -0.654197 -2.52281 0.911667 -1.41316 0.91035 -1.39145 1.38758 -9.07165 -2.31089 -0.0 0.0 0.0 -0.0 0.0 0.0 -1.01255e-14 2.29101e-14 -6.30547e-14 17.6194 12.5245 2.19128 -29.9898 -26.9167 12.3 0.0134506 -2.59573 -0.363491 -1.08978e-10 -2.80698e-09 6.64189e-10 -1.91184e-10 -4.85639e-09 1.14797e-09 -1.08974e-10 -2.80698e-09 6.6417e-10 7.73091 5.47488 0.417314 -1.0898e-10 -2.80699e-09 6.64191e-10 2.90554 0.965183 0.102902 -1.08973e-10 -2.80698e-09 6.64189e-10 10.2786 0.731801 0.0259123 -1.08982e-10 -2.80698e-09 6.64203e-10 2.22167 -0.733487 -0.20892 -1.03282e-14 2.29091e-14 -6.33844e-14 -17.552 14.4679 15.0366 21.5874 -19.4294 -15.0771 -0.021554 -3.26213 0.455795 2.4291e-11 4.51321e-10 4.19758e-10 4.01366e-11 7.79166e-10 7.24141e-10 2.42875e-11 4.51321e-10 4.19771e-10 -7.73091 5.47488 -0.417314 2.42926e-11 4.51321e-10 4.19758e-10 -2.90554 0.965183 -0.102902 2.42874e-11 4.51321e-10 4.19756e-10 -10.2786 0.731801 -0.0259123 2.42952e-11 4.51322e-10 4.19742e-10 -2.22167 -0.733487 0.20892 -2.03217e-16 0.0 -3.88251e-19 2.6485 -0.758078 0.824324 0.137377 10.235 0.540878 -0.238089 9.54816 -1.93579 2.03217e-16 0.0 3.88251e-19 1.27228 -26.8108 2.74238 0.0638268 16.822 -0.149919 0.251592 3.73495 -3.84923
4.22649 62.6749 219.214 -176.815 3.7735 -154.57 4.96479 8.38257 6.93427 -1.72834 -5.18419 1.80482 -2.85321 1.87705 -2.86376 2.0044 -18.6054 -4.95948 -0.0 0.0 0.0 -0.0 0.0 0.0 -2.19387e-14 4.94828e-14 -1.34767e-13 34.9953 25.6711 4.97794 -43.3507 -50.4848 36.8897 -0.00856097 -5.37899 -0.755819 -2.37035e-10 -6.0823e-09 1.439e-09 -4.1579e-10 -1.05227e-08 2.48717e-09 -2.37031e-10 -6.0823e-09 1.43899e-09 7.73091 5.47488 0.417314 -2.37038e-10 -6.08231e-09 1.43901e-09 2.90554 0.965183 0.102902 -2.3703e-10 -6.0823e-09 1.439e-09 10.2786 0.731801 0.0259123 -2.37037e-10 -6.0823e-09 1.43902e-09 2.22167 -0.733487 -0.20892 -2.20439e-14 4.94817e-14 -1.35024e-13 -44.6681 26.4203 33.926 31.7373 -35.1419 -36.647 0.0124149 -6.68997 0.939775 6.05042e-11 9.73356e-10 9.0402e-10 1.00549e-10 1.68042e-09 1.55968e-09 6.05007e-11 9.73355e-10 9.0403e-10 -7.73091 5.47488 -0.417314 6.05062e-11 9.73355e-10 9.0402e-10 -2.90554 0.965183 -0.102902 6.04985e-11 9.73356e-10 9.04019e-10 -10.2786 0.731801 -0.0259123 6.0507e-11 9.73357e-10 9.04008e-10 -2.22167 -0.733487 0.20892 -2.03217e-16 0.0 -3.88251e-19 3.41446 5.57032 1.94495 0.210365 14.0125 1.05387 0.815881 19.5059 -4.1987 2.03217e-16 0.0 3.88251e-19 6.0645 -52.9964 8.389 0.312494 36.7631 -0.468626 -0.0389916 3.52686 -7.74354
4.45009 62.8056 216.43 -176.738 3.4106 -154.605 5.83147 12.1511 10.1873 -2.60819 -7.5647 2.60466 -4.10684 2.72461 -4.17854 1.74529 -27.0267 -7.68996 -0.0 0.0 0.0 -0.0 0.0 0.0 -3.01748e-14 6.87987e-14 -1.89164e-13 49.3649 37.3241 8.0798 -30.7485 -56.373 78.3836 -0.0592305 -7.78594 -1.09949 -3.23934e-10 -8.42028e-09 1.99624e-09 -5.68337e-10 -1.4568e-08 3.45026e-09 -3.23932e-10 -8.42028e-09 1.99623e-09 7.73091 5.47488 0.417314 -3.23938e-10 -8.42029e-09 1.99625e-09 2.90554 0.965183 0.102902 -3.2393e-10 -8.42028e-09 1.99624e-09 10.2786 0.731801 0.0259123 -3.23936e-10 -8.42028e-09 1.99626e-09 2.22167 -0.733487 -0.20892 -3.01925e-14 6.87977e-14 -1.89358e-13 -75.6339 30.7002 53.3902 30.3558 -39.701 -61.6126 0.0929823 -9.7839 1.38532 7.59122e-11 1.35468e-09 1.26295e-09 1.25639e-10 2.33874e-09 2.17878e-09 7.59086e-11 1.35468e-09 1.26296e-09 -7.73091 5.47488 -0.417314 7.59144e-11 1.35468e-09 1.26295e-09 -2.90554 0.965183 -0.102902 7.59046e-11 1.35468e-09 1.26295e-09 -10.2786 0.731801 -0.0259123 7.59138e-11 1.35468e-09 1.26294e-09 -2.22167 -0.733487 0.20892 -2.03217e-16 0.0 -3.88251e-19 3.92826 10.9205 2.84077 0.210138 17.901 1.52481 2.51609 28.1005 -6.64073 2.03217e-16 0.0 3.88251e-19 27.0139 -74.8144 29.152 0.867912 54.6193 -1.00503 -0.35353 3.17298 -11.2634
4.70498 62.9075 213.793 -176.541 3.3508 -154.48 6.17067 14.8078 12.4342 -3.16076 -9.24952 3.15225 -4.98945 3.28051 -5.09537 1.07928 -32.8459 -9.90995 -0.0 0.0 0.0 -0.0 0.0 0.0 -2.94684e-14 6.99724e-14 -2.00276e-13 59.0712 45.5193 10.4664 -24.6183 -48.5582 101.265 -0.106184 -9.25345 -1.31203 -3.07942e-10 -8.41491e-09 2.00955e-09 -5.40736e-10 -1.45605e-08 3.47303e-09 -3.07939e-10 -8.41492e-09 2.00953e-09 7.73091 5.47488 0.417314 -3.07946e-10 -8.41492e-09 2.00956e-09 2.90554 0.965183 0.102902 -3.07937e-10 -8.4149e-09 2.00955e-09 10.2786 0.731801 0.0259123 -3.07943e-10 -8.41491e-09 2.00957e-09 2.22167 -0.733487 -0.20892 -2.94235e-14 6.99722e-14 -2.00425e-13 -98.8607 29.1862 65.9236 28.4268 -36.2678 -77.4587 0.181323 -12.0453 1.71851 3.93069e-11 1.38423e-09 1.30855e-09 6.24255e-11 2.38973e-09 2.25679e-09 3.93033e-11 1.38422e-09 1.30855e-09 -7.73091 5.47488 -0.417314 3.93092e-11 1.38422e-09 1.30855e-09 -2.90554 0.965183 -0.102902 3.92982e-11 1.38422e-09 1.30855e-09 -10.2786 0.731801 -0.0259123 3.93077e-11 1.38423e-09 1.30854e-09 -2.22167 -0.733487 0.20892 -2.03217e-16 0.0 -3.88251e-19 4.33538 13.8455 3.08763 0.145797 22.0706 1.86147 4.22876 33.416 -8.84748 2.03217e-16 0.0 3.88251e-19 103.008 -80.8188 104.587 1.80714 67.2656 -1.87568 -0.7093 2.48689 -13.8497
4.95371 63.0898 211.113 -176.341 3.072 -154.637 6.32001 16.0061 13.1845 -3.33713 -9.9539 3.34953 -5.40495 3.45253 -5.46086 0.842667 -35.1527 -10.8353 -0.0 0.0 0.0 -0.0 0.0 0.0 -1.26853e-14 3.96342e-14 -1.38136e-13 64.1933 49.1906 10.3816 -25.2455 -43.6513 105.475 -0.113225 -9.32259 -1.32254 -1.00064e-10 -4.22493e-09 1.03319e-09 -1.77185e-10 -7.31691e-09 1.78487e-09 -1.00061e-10 -4.22494e-09 1.03318e-09 7.73091 5.47488 0.417314 -1.00068e-10 -4.22494e-09 1.0332e-09 2.90554 0.965183 0.102902 -1.00059e-10 -4.22493e-09 1.03319e-09 10.2786 0.731801 0.0259123 -1.00066e-10 -4.22493e-09 1.0332e-09 2.22167 -0.733487 -0.20892 -1.26066e-14 3.96364e-14 -1.38263e-13 -108.219 27.5741 69.2055 28.3355 -33.7772 -82.5222 0.231686 -13.1759 1.88756 -1.04149e-10 7.94274e-10 8.23568e-10 -1.82753e-10 1.37108e-09 1.41836e-09 -1.04153e-10 7.94273e-10 8.23577e-10 -7.73091 5.47488 -0.417314 -1.04147e-10 7.94273e-10 8.23568e-10 -2.90554 0.965183 -0.102902 -1.04158e-10 7.94274e-10 8.23568e-10 -10.2786 0.731801 -0.0259123 -1.04149e-10 7.94275e-10 8.23562e-10 -2.22167 -0.733487 0.20892 -2.03217e-16 0.0 -3.88251e-19 4.82442 13.4455 2.35414 0.0596045 26.6244 1.99447 5.01941 34.2589 -10.1458 2.03217e-16 0.0 3.88251e-19 125.766 -78.1104 127.138 2.62255 72.6729 -2.61408 -1.10275 1.45408 -15.2812
5.18964 63.1751 208.417 -176.214 2.7983 -154.689 6.44299 16.1957 12.8231 -3.26088 -9.95974 3.29192 -5.49525 3.35055 -5.4314 1.19434 -34.998 -10.6385 -0.0 0.0 0.0 -0.0 0.0 0.0 1.54116e-14 -1.29214e-14 -2.42766e-14 66.6211 49.6475 8.01901 -25.6817 -43.341 102.779 -0.0897544 -8.39697 -1.18885 2.42597e-10 2.91101e-09 -6.39216e-10 4.22341e-10 5.02096e-09 -1.1066e-09 2.42601e-10 2.911e-09 -6.39222e-10 7.73091 5.47488 0.417314 2.42593e-10 2.91099e-09 -6.39207e-10 2.90554 0.965183 0.102902 2.42602e-10 2.91101e-09 -6.39212e-10 10.2786 0.731801 0.0259123 2.42594e-10 2.91101e-09 -6.39199e-10 2.22167 -0.733487 -0.20892 1.55035e-14 -1.29157e-14 -2.43977e-14 -107.918 27.3551 66.7831 28.3177 -34.2368 -82.3031 0.241616 -13.4978 1.93523 -3.22307e-10 -2.32127e-10 -3.60167e-11 -5.55128e-10 -4.01156e-10 -6.71029e-11 -3.22311e-10 -2.32127e-10 -3.60036e-11 -7.73091 5.47488 -0.417314 -3.22306e-10 -2.32128e-10 -3.60169e-11 -2.90554 0.965183 -0.102902 -3.22315e-10 -2.32128e-10 -3.60166e-11 -10.2786 0.731801 -0.0259123 -3.22307e-10 -2.32128e-10 -3.60239e-11 -2.22167 -0.733487 0.20892 -2.03217e-16 0.0 -3.88251e-19 5.27045 10.6583 0.943416 -0.0119851 31.4543 1.97702 4.85818 31.9521 -10.6145 2.03217e-16 0.0 3.88251e-19 113.798 -79.6701 115.428 2.69119 72.9128 -2.6147 -1.51449 0.170043 -15.8872
5.40903 63.2394 205.725 -176.19 2.4989 -154.766 6.43349 16.0059 11.9406 -3.06654 -9.70362 3.1065 -5.43797 3.10678 -5.2303 1.77642 -33.8815 -9.9758 -0.0 0.0 0.0 -0.0 0.0 0.0 4.23428e-14 -6.45833e-14 9.003e-14 67.8938 48.6062 4.80863 -26.1402 -44.5105 97.1501 -0.0639153 -7.20768 -1.0183 5.62633e-10 9.77906e-09 -2.22498e-09 9.82271e-10 1.68969e-08 -3.84819e-09 5.62638e-10 9.77905e-09 -2.22498e-09 7.73091 5.47488 0.417314 5.6263e-10 9.77905e-09 -2.22497e-09 2.90554 0.965183 0.102902 5.6264e-10 9.77906e-09 -2.22497e-09 10.2786 0.731801 0.0259123 5.62629e-10 9.77906e-09 -2.22496e-09 2.22167 -0.733487 -0.20892 4.24296e-14 -6.45746e-14 8.99008e-14 -103.755 27.4211 61.8369 28.33 -35.8952 -79.937 0.231678 -13.4433 1.92589 -5.15893e-10 -1.22989e-09 -8.98386e-10 -8.8504e-10 -2.12381e-09 -1.5571e-09 -5.15897e-10 -1.22989e-09 -8.98369e-10 -7.73091 5.47488 -0.417314 -5.15892e-10 -1.2299e-09 -8.98386e-10 -2.90554 0.965183 -0.102902 -5.15901e-10 -1.2299e-09 -8.98386e-10 -10.2786 0.731801 -0.0259123 -5.15893e-10 -1.2299e-09 -8.98395e-10 -2.22167 -0.733487 0.20892 -2.03217e-16 0.0 -3.88251e-19 5.43392 6.80985 -0.679647 -0.0697333 36.4146 1.89896 4.27443 28.3836 -10.7655 2.03217e-16 0.0 3.88251e-19 78.7453 -81.0728 80.895 2.38533 71.0078 -2.25191 -1.93956 -1.38475 -15.9367
